# xmcd CD database file
#
# Track frame offsets:
#	150
#	13454
#	28238
#	42571
#	57001
#	76266
#	89827
#	102908
#	121048
#	135064
#	180485
#	192754
#	206849
#
# Disc length: 2935 seconds
#
# Revision: 0
# Processed by: cddbd v1.5.1PL2 Copyright (c) Steve Scherf et al.
# Submitted via: CDex 1.51
#
DISCID=ac0b750d
DTITLE=St. Thomas - Children of the new brigade
DYEAR=2006
DGENRE=Country
TTITLE0=LA Man
TTITLE1=Last Word
TTITLE2=Of Course You Were There
TTITLE3=Morning Dancer
TTITLE4=Instrument sound
TTITLE5=the long goodnights
TTITLE6=children of the new brigade
TTITLE7=Dream on
TTITLE8=Twisted cowboy
TTITLE9=Sheer Wonder
TTITLE10=the play
TTITLE11=the mexican father
TTITLE12=book on hold
EXTD=YEAR: 2006
EXTT0=
EXTT1=
EXTT2=
EXTT3=
EXTT4=
EXTT5=
EXTT6=
EXTT7=
EXTT8=
EXTT9=
EXTT10=
EXTT11=
EXTT12=
PLAYORDER=
